<svg width="1080" height="1080" viewBox="0 0 1080 1080" fill="none" xmlns="http://www.w3.org/2000/svg">
<path fill-rule="evenodd" clip-rule="evenodd" d="M724.61 430.393C491.163 533.688 483.074 526.801 620.599 321.36C941.878 -159.532 1317.47 168.714 724.61 430.393ZM543.169 0C565.127 0 587.085 1.14772 607.887 3.44315C620.599 4.59086 640.246 9.18172 650.647 16.068C686.473 41.3177 666.826 92.9649 647.18 120.51C636.779 134.283 625.222 148.055 610.198 161.828C583.618 187.078 531.612 213.475 494.63 219.214C337.458 243.316 217.268 377.598 217.268 539.426C217.268 718.47 364.039 863.082 543.169 863.082C650.647 863.082 744.257 812.582 804.352 734.538C814.753 719.617 820.532 701.254 815.909 682.891C806.664 643.868 744.257 643.868 711.898 645.016L710.742 646.164C662.204 647.311 650.647 635.834 674.916 608.289C685.317 597.96 696.874 587.63 709.587 578.448C752.347 547.46 805.508 523.358 866.759 509.586C893.339 503.847 941.878 502.699 968.459 504.995C969.614 506.142 969.614 506.142 970.77 506.142C991.572 508.438 1008.91 513.029 1022.78 519.915L1023.93 521.063C1025.09 521.063 1026.24 522.21 1027.4 522.21C1028.55 523.358 1029.71 523.358 1030.87 524.506C1032.02 524.506 1032.02 525.654 1033.18 525.654L1034.33 526.801C1034.33 526.801 1035.49 527.949 1036.64 527.949C1037.8 529.097 1038.95 529.097 1038.95 530.244H1040.11C1041.27 531.392 1041.27 531.392 1042.42 532.54C1043.58 533.688 1044.73 533.688 1044.73 534.835H1045.89C1045.89 535.983 1047.04 535.983 1048.2 537.131C1049.36 538.278 1049.36 538.278 1050.51 539.426C1051.67 540.574 1051.67 540.574 1052.82 541.722C1053.98 542.869 1053.98 544.017 1055.13 544.017V545.165C1056.29 545.165 1056.29 546.312 1057.45 547.46C1058.6 548.608 1058.6 548.608 1059.76 549.756C1060.91 550.903 1060.91 552.051 1062.07 553.199C1063.22 554.346 1064.38 556.642 1065.54 558.937C1078.25 580.744 1082.87 609.437 1078.25 635.834C1033.18 888.332 811.286 1080 543.169 1080C243.848 1080 0 837.832 0 539.426C0 241.02 243.848 0 543.169 0Z" fill="#265BBB"/>
<path fill-rule="evenodd" clip-rule="evenodd" d="M540.857 166.419C625.222 113.624 641.401 30.9883 543.168 25.2497C461.115 20.6589 426.445 30.9883 347.859 60.8289C194.153 119.362 88.9867 245.611 40.4482 400.553C16.179 492.37 18.4904 579.596 36.9812 662.232C63.5618 756.344 110.945 840.128 184.908 915.877C293.542 1013.43 414.888 1058.19 559.348 1055.9C681.85 1046.72 785.861 1009.99 870.225 941.127C964.991 864.23 1022.78 773.56 1048.2 664.527C1063.22 525.654 912.986 513.029 839.022 556.642C813.597 571.562 808.974 596.812 843.645 636.982C859.824 655.345 858.669 687.481 847.112 725.356C812.442 780.446 771.993 822.912 726.921 844.718C618.288 896.366 506.187 895.218 411.421 860.786C354.793 838.98 317.811 804.548 269.273 755.197C234.602 708.14 210.333 654.198 196.465 578.449C187.219 513.029 194.153 459.086 221.89 400.553C255.404 339.724 286.608 296.111 332.835 265.122C366.35 241.02 399.864 222.657 429.912 213.475C480.762 198.555 488.852 198.555 540.857 166.419ZM952.279 253.645C908.363 302.997 862.136 332.837 795.106 370.712C741.945 400.553 731.544 407.439 665.67 428.098C595.174 451.052 578.994 430.393 621.755 366.121C679.539 277.747 762.747 154.942 867.914 123.953C974.237 91.8172 1030.86 137.726 952.279 253.645Z" fill="#3785E7" fill-opacity="0.4"/>
<path fill-rule="evenodd" clip-rule="evenodd" d="M529.301 152.646C640.246 83.7832 589.396 22.9543 457.649 43.6132C346.704 61.9766 248.471 123.953 162.951 208.884C78.5865 307.588 45.0718 421.212 45.0718 539.426C43.9161 650.755 76.2751 762.083 158.328 856.196C229.98 938.831 349.015 1014.58 477.296 1030.65C606.732 1055.9 737.323 1013.43 834.4 941.126C941.878 871.116 1004.28 777.003 1027.4 654.198C1045.89 554.346 832.089 542.869 866.759 612.88C893.34 658.789 876.005 718.47 850.58 759.788C806.664 830.946 725.766 875.707 657.581 891.775C542.014 922.763 429.913 904.4 339.77 841.275C256.561 785.037 195.31 687.481 180.286 579.596C168.729 459.086 209.178 328.247 312.034 254.793C359.416 222.657 476.14 185.93 529.301 152.646ZM828.622 160.68C774.305 200.85 713.054 268.565 664.515 336.281C614.821 402.848 648.336 425.802 721.144 386.78C778.928 359.235 862.136 306.44 922.232 252.497C1020.46 165.271 919.92 96.4081 828.622 160.68Z" fill="#ECEEFA" fill-opacity="0.4"/>
<path fill-rule="evenodd" clip-rule="evenodd" d="M438.003 80.34C150.239 140.021 3.46766 491.222 130.592 749.458C192.999 858.491 278.519 936.536 407.955 982.444C488.853 1008.84 577.84 1014.58 662.204 990.478C737.323 968.672 810.131 935.388 863.292 880.297C977.705 763.231 992.729 678.3 980.016 631.243C970.771 593.369 904.897 607.141 906.053 628.948C908.364 647.311 921.076 647.311 921.076 667.97C921.076 697.811 906.053 737.981 884.095 771.265C851.736 821.764 810.131 850.457 769.683 875.707C716.521 910.138 651.803 931.945 576.684 938.831C485.386 948.013 387.153 921.615 315.501 867.673C260.028 825.207 216.113 771.265 187.221 711.583C129.437 587.63 134.059 437.279 206.867 314.474C229.981 276.599 261.184 246.759 297.01 224.952C302.788 221.509 410.266 174.453 477.296 131.987C531.613 98.7035 559.349 55.0903 438.003 80.34ZM767.371 325.951C715.366 354.644 667.983 359.235 736.168 288.076C766.216 257.088 811.287 210.032 849.424 188.225C906.053 156.089 953.435 184.782 900.274 238.725C864.448 275.452 792.796 311.031 767.371 325.951Z" fill="#FEFEFE" fill-opacity="0.4"/>
</svg>
